<svg height="24" viewBox="0 0 96 24" width="96" xmlns="http://www.w3.org/2000/svg"><g fill="none" fill-rule="evenodd"><g fill="#fff"><circle cx="12" cy="12" r="12"/><path d="m36 24c6.627417 0 12-5.372583 12-12s-5.372583-12-12-12-12 5.372583-12 12 5.372583 12 12 12z"/><circle cx="60" cy="12" r="12"/><circle cx="84" cy="12" r="12"/></g><path d="m4.64685315 4.23703704v-1.23490371c0-.55709629.12253846-.83917037.9831958-.83917037h1.07974126v-2.07407407h-1.65034965c-2.06293706 0-2.88811189 1.38382222-2.88811189 2.9037037v1.24444445h-1.65034965v2.07407407h1.65034965v6.22222219h2.47552448v-6.22222219h1.81786014l.24507692-2.07407407z" fill="#5c666f" transform="translate(32 5.528)"/><path d="m11.8892358 3.25664115c0 3.46456593-2.68662314 7.45964615-7.59962027 7.45964615-1.50817061 0-2.91180335-.434284-4.09392883-1.17833515.20851066.02468153.42097681.03688364.63683338.03688364 1.2513465 0 2.40324076-.41903139 3.31752327-1.12259368-1.16884634-.02079905-2.15545776-.7789935-2.49534709-1.82033225.1633051.03022794.33056568.04686717.50262936.04686717.24354497 0 .4794615-.03216918.70379411-.09207043-1.22196288-.24099158-2.14302624-1.30035617-2.14302624-2.57076172 0-.01109282 0-.02190832.00084761-.03272383.35966676.19634297.77188499.31392689 1.20953135.32779292-.71679071-.47033569-1.18805871-1.27262411-1.18805871-2.18251292 0-.48031923.13109613-.93041052.36136197-1.31782737 1.3171771 1.58627369 3.28559685 2.63010833 5.50547255 2.73937264-.04577064-.19190584-.06893849-.3921313-.06893849-.59762584 0-1.44789072 1.19568715-2.62151139 2.67080119-2.62151139.76821204 0 1.46239994.31836402 1.94977244.82780191.6085799-.11758392 1.1801477-.33555789 1.6963388-.63617339-.2000346.6120465-.6232717 1.12619885-1.1744971 1.45066392.5402065-.06350641 1.0552674-.20438526 1.5341638-.41293033-.3582541.52552248-.8111573.98753856-1.3332815 1.35692957.0056507.11259215.0076284.22573894.0076284.33944038z" fill="#5c666f" transform="translate(6 7)"/><path d="m65.8333333 7h-11.6666666c-.6216 0-1.1666667.584-1.1666667 1.25v7.511c0 .66.5450667 1.239 1.1666667 1.239h11.6666666c.6216 0 1.1666667-.579 1.1666667-1.239v-7.511c0-.666-.5450667-1.25-1.1666667-1.25zm-8.5038333 6.208-2.1 1.5c-.0399.0285-.0849333.042-.1292667.042-.0753666 0-.1493333-.039-.1943666-.11125-.0714-.115-.0424667-.27025.0646333-.34675l2.1-1.5c.1073333-.077.252-.04575.3236333.06925.0714.115.0424667.27025-.0646333.34675zm7.7646333 1.43075c-.0450333.07225-.119.11125-.1943666.11125-.0443334 0-.0893667-.0135-.1292667-.042l-2.1-1.5c-.1071-.0765-.1360333-.23175-.0646333-.34675.0716333-.115.2163-.14625.3236333-.06925l2.1 1.5c.1071.0765.1360333.23175.0646333.34675zm-.0646333-4.68075-4.9 3.5c-.0392.028-.0844667.042-.1295.042s-.0903-.014-.1295-.042l-4.9-3.5c-.1071-.0765-.1360333-.23175-.0646333-.34675s.2160666-.14625.3236333-.06925l4.7705 3.4075 4.7705-3.4075c.1073333-.077.252-.04575.3236333.06925.0714.115.0424667.27025-.0646333.34675z" fill="#5c666f"/><g transform="translate(77 5)"><path d="m0 0h14v14h-14z"/><path d="m9.33333333.58333333h-7c-.64166666 0-1.16666666.525-1.16666666 1.16666667v8.16666667h1.16666666v-8.16666667h7zm-4.66666666 2.33333334c-.64166667 0-1.16666667.525-1.16666667 1.16666666v8.16666667c0 .6416667.525 1.1666667 1.16666667 1.1666667h6.41666663c.6416667 0 1.1666667-.525 1.1666667-1.1666667v-8.16666667c0-.64166666-.525-1.16666666-1.1666667-1.16666666zm6.41666663 9.33333333h-6.41666663v-8.16666667h6.41666663z" fill="#5c666f"/></g></g></svg>