<svg height="28" viewBox="0 0 56 28" width="56" xmlns="http://www.w3.org/2000/svg"><g fill="none" fill-rule="evenodd"><g transform="translate(28.769231)"><ellipse cx="13.615385" cy="13.715366" fill="#eb5424" rx="13.615385" ry="13.715366"/><path d="m14.6468531 12.237037v-1.2349037c0-.5570963.1225385-.8391703.9831959-.8391703h1.0797412v-2.07407411h-1.6503496c-2.0629371 0-2.8881119 1.38382222-2.8881119 2.90370371v1.2444444h-1.6503497v2.0740741h1.6503497v6.2222222h2.4755244v-6.2222222h1.8178602l.2450769-2.0740741z" fill="#fff"/></g><ellipse cx="13.615385" cy="13.715366" fill="#eb5424" rx="13.615385" ry="13.715366"/><path d="m11.8892358 3.25664115c0 3.46456593-2.68662314 7.45964615-7.59962027 7.45964615-1.50817061 0-2.91180335-.434284-4.09392883-1.17833515.20851066.02468153.42097681.03688364.63683338.03688364 1.2513465 0 2.40324076-.41903139 3.31752327-1.12259368-1.16884634-.02079905-2.15545776-.7789935-2.49534709-1.82033225.1633051.03022794.33056568.04686717.50262936.04686717.24354497 0 .4794615-.03216918.70379411-.09207043-1.22196288-.24099158-2.14302624-1.30035617-2.14302624-2.57076172 0-.01109282 0-.02190832.00084761-.03272383.35966676.19634297.77188499.31392689 1.20953135.32779292-.71679071-.47033569-1.18805871-1.27262411-1.18805871-2.18251292 0-.48031923.13109613-.93041052.36136197-1.31782737 1.3171771 1.58627369 3.28559685 2.63010833 5.50547255 2.73937264-.04577064-.19190584-.06893849-.3921313-.06893849-.59762584 0-1.44789072 1.19568715-2.62151139 2.67080119-2.62151139.76821204 0 1.46239994.31836402 1.94977244.82780191.6085799-.11758392 1.1801477-.33555789 1.6963388-.63617339-.2000346.6120465-.6232717 1.12619885-1.1744971 1.45066392.5402065-.06350641 1.0552674-.20438526 1.5341638-.41293033-.3582541.52552248-.8111573.98753856-1.3332815 1.35692957.0056507.11259215.0076284.22573894.0076284.33944038z" fill="#fff" transform="translate(6.807692 8.711111)"/></g></svg>