<svg height="19" viewBox="0 0 14 19" width="14" xmlns="http://www.w3.org/2000/svg"><path d="m15 6.66666667h-.8333333v-1.66666667c0-2.3-1.8666667-4.16666667-4.1666667-4.16666667s-4.16666667 1.86666667-4.16666667 4.16666667v1.66666667h-.83333333c-.91666667 0-1.66666667.75-1.66666667 1.66666666v8.33333337c0 .9166666.75 1.6666666 1.66666667 1.6666666h10c.9166667 0 1.6666667-.75 1.6666667-1.6666666v-8.33333337c0-.91666666-.75-1.66666666-1.6666667-1.66666666zm-5 7.50000003c-.91666667 0-1.66666667-.75-1.66666667-1.6666667s.75-1.6666667 1.66666667-1.6666667c.9166667 0 1.6666667.75 1.6666667 1.6666667s-.75 1.6666667-1.6666667 1.6666667zm2.5833333-7.50000003h-5.16666663v-1.66666667c0-1.425 1.15833333-2.58333333 2.58333333-2.58333333s2.5833333 1.15833333 2.5833333 2.58333333z" fill="#fff" fill-rule="evenodd" transform="translate(-3)"/></svg>