<svg height="20" viewBox="0 0 19 20" width="19" xmlns="http://www.w3.org/2000/svg"><g fill="#fff" fill-rule="evenodd"><path d="m11.7135 12.3258065c-.3827143-.4883871-.8475357-.9083871-1.3415357-1.2935484-.47500001-.3709678-1.07282144-.7245162-1.39853573-1.23548391-.75321428-1.18193548.86992857-2.0916129 1.57225003-2.83870967 1.5966785-1.69612904 1.1752857-4.81161291-.85703574-6.0367742.50417854 0 1.19700004.12451613 1.67471424-.01225806.5530358-.15870968 1.1277858-.62774194 1.62925-.90645161-1.7378214 0-3.47564281-.00580646-5.21346424 0-1.62382143.00516129-3.30532143.22451612-4.59596429 1.23548387-1.46842857 1.15032258-2.25353571 3.03806451-1.65232143 4.80774193.69960715 2.05870968 2.97485715 2.93870968 5.08860715 2.69225807-.11807143.42387096-.31282143.75935483-.25378572 1.21354838.07328572.5632258.40917857 1.0793548.76678572 1.52-1.92985715.0470968-4.23021429.3670968-5.75360715 1.5877419-1.44060714 1.1541936-1.87557143 3.2483871-.59239285 4.6567742 1.32660714 1.4554839 3.78846428 1.7419355 5.68235714 1.6122581 1.68285714-.1154839 3.35146428-.6174194 4.57017857-1.7690323 1.4372143-1.3574193 1.957-3.5974193.6745-5.2335483-.2157857-.2754839.2157857.2754838 0 0zm-4.71471429-4.22774198c-3.49057142 0-5.04857142-7.2767742-1.01582142-7.25806452 1.97396428.00967742 2.86560714 2.08645161 3.1635 3.64580645.30467857 1.59806452-.05564286 3.61225807-2.14767858 3.61225807zm3.38064289 8.73741938c-1.1454286 1.8632258-4.35575003 1.6851613-6.13700003.9380645-1.84910714-.7754839-2.78689286-3.0587097-1.083-4.4916129.74303572-.6258065 1.83892857-.9025807 2.79842857-1.0296774.52996429-.0703226 1.11692857-.1322581 1.65164286-.0754839.38610714.0406452.61953571.2496774.94321429.4677419 1.40192857.9445162 2.89750001 2.447742 1.82671431 4.1909678-.2239286.3638709.2252857-.3670968 0 0z"/><path d="m19 2.58064516h-2.7142857v-2.58064516h-1.3571429v2.58064516h-2.7142857v1.29032258h2.7142857v2.58064516h1.3571429v-2.58064516h2.7142857z"/></g></svg>