<svg viewBox="0 0 315 274" xmlns="http://www.w3.org/2000/svg"><g fill="#fff" fill-rule="evenodd"><path d="m274.486793 137.143237c0-75.4448155-61.233262-136.60492276-136.768319-136.60492276-75.5350566 0-136.76831876 61.16010726-136.76831876 136.60492276 0 75.444816 61.23326216 136.604923 136.76831876 136.604923 75.535057 0 136.768319-61.160107 136.768319-136.604923zm-248.6696707 0c0-61.7275763 50.0999418-111.767664 111.9013517-111.767664 61.80141 0 111.901352 50.0400877 111.901352 111.767664 0 61.727577-50.099942 111.767664-111.901352 111.767664-61.8014099 0-111.9013517-50.040087-111.9013517-111.767664z"/><path d="m191.596903 137.143237c0-29.720685-24.122194-53.8140604-53.878429-53.8140604-29.756234 0-53.8784285 24.0933754-53.8784285 53.8140604s24.1221945 53.814061 53.8784285 53.814061c29.756235 0 53.878429-24.093376 53.878429-53.814061zm-82.88989 0c0-16.003446 12.988873-28.976802 29.011461-28.976802s29.011462 12.973356 29.011462 28.976802-12.988874 28.976802-29.011462 28.976802-29.011461-12.973356-29.011461-28.976802z"/><path d="m302.624759 149.561867c6.433083 0 11.648127-5.56001 11.648127-12.41863 0-6.858619-5.215044-12.418629-11.648127-12.418629h-124.246695c-6.433084 0-11.648128 5.56001-11.648128 12.418629 0 6.85862 5.215044 12.41863 11.648128 12.41863z"/></g></svg>