<svg height="51" viewBox="0 0 153 51" width="153" xmlns="http://www.w3.org/2000/svg"><g fill="none" fill-rule="evenodd" transform="translate(1 1)"><rect fill="#5c666f" height="48.076923" rx="2" stroke="#5c666f" width="150.361446"/><g fill="#fff"><path d="m14.0520107 7.69230769c-1.3728394 0-2.4857456 1.25242984-2.4857456 2.80340081v29.008583c0 1.5482755 1.1116752 2.8034008 2.4857456 2.8034008h12.3779063c1.3728394 0 2.4857457-1.2524298 2.4857457-2.8034008v-29.008583c0-1.54827551-1.1116752-2.80340081-2.4857457-2.80340081zm-.8592396 4.53972261v25.5359394h14.0963855v-25.5359394zm7.0481928 28.9407314c.5988629 0 1.0843373-.5081258 1.0843373-1.1349307s-.4854744-1.1349306-1.0843373-1.1349306c-.598863 0-1.0843374.5081257-1.0843374 1.1349306s.4854744 1.1349307 1.0843374 1.1349307zm-2.1686747-31.21059272c0 .31340242.1863704.56746532.4317387.56746532h3.473872c.2384427 0 .4317387-.2632285.4317387-.56746532 0-.31340244-.1863705-.56746532-.4317387-.56746532h-3.473872c-.2384427 0-.4317387.26322854-.4317387.56746532z"/><path d="m42.191506 14.9098077.945 2.7825h1.220625l-3.01875-8.84625001h-1.378125l-3.005625 8.84625001h1.18125l.91875-2.7825zm-2.900625-.8925.86625-2.559375c.170625-.538125.315-1.07625.44625-1.60125001h.02625c.13125.51187501.2625 1.03687501.459375 1.61437501l.86625 2.54625zm5.323125-2.6775 2.415 6.3525h1.1025l2.49375-6.3525h-1.2075l-1.23375 3.57c-.21.5775-.39375 1.1025-.538125 1.6275h-.039375c-.13125-.525-.301875-1.05-.511875-1.6275l-1.246875-3.57zm11.675625 6.3525c-.07875-.433125-.105-.97125-.105-1.5225v-2.375625c0-1.273125-.4725-2.59875-2.415-2.59875-.800625 0-1.561875.223125-2.086875.564375l.2625.76125c.44625-.28875 1.063125-.4725 1.65375-.4725 1.299375 0 1.44375.945 1.44375 1.47v.13125c-2.454375-.013125-3.819375.826875-3.819375 2.3625 0 .91875.65625 1.824375 1.9425 1.824375.905625 0 1.588125-.44625 1.9425-.945h.039375l.091875.800625zm-1.220625-2.139375c0 .118125-.02625.249375-.065625.3675-.18375.538125-.70875 1.063125-1.535625 1.063125-.590625 0-1.089375-.354375-1.089375-1.1025 0-1.23375 1.430625-1.456875 2.690625-1.430625zm4.194375 2.139375v-6.3525h-1.155v6.3525zm-.5775-8.85937501c-.42 0-.721875.315-.721875.721875 0 .39375.28875.70875001.695625.70875001.459375 0 .748125-.31500001.735-.70875001 0-.406875-.275625-.721875-.70875-.721875zm2.55375 8.85937501h1.155v-9.31875001h-1.155zm7.725 0c-.07875-.433125-.105-.97125-.105-1.5225v-2.375625c0-1.273125-.4725-2.59875-2.415-2.59875-.800625 0-1.561875.223125-2.086875.564375l.2625.76125c.44625-.28875 1.063125-.4725 1.65375-.4725 1.299375 0 1.44375.945 1.44375 1.47v.13125c-2.454375-.013125-3.819375.826875-3.819375 2.3625 0 .91875.65625 1.824375 1.9425 1.824375.905625 0 1.588125-.44625 1.9425-.945h.039375l.091875.800625zm-1.220625-2.139375c0 .118125-.02625.249375-.065625.3675-.18375.538125-.70875 1.063125-1.535625 1.063125-.590625 0-1.089375-.354375-1.089375-1.1025 0-1.23375 1.430625-1.456875 2.690625-1.430625zm3.984375 2.139375.0525-1.05h.039375c.4725.84 1.2075 1.194375 2.12625 1.194375 1.4175 0 2.848125-1.12875 2.848125-3.399375.013125-1.929375-1.1025-3.241875-2.6775-3.241875-1.02375 0-1.75875.459375-2.165625 1.168125h-.02625v-3.99000001h-1.141875v7.67812501c0 .564375-.02625 1.2075-.0525 1.640625zm.196875-3.688125c0-.18375.039375-.34125.065625-.4725.23625-.879375.97125-1.4175 1.75875-1.4175 1.23375 0 1.89 1.089375 1.89 2.3625 0 1.456875-.721875 2.44125-1.929375 2.44125-.84 0-1.509375-.55125-1.7325-1.351875-.02625-.13125-.0525-.275625-.0525-.42zm6.38625 3.688125h1.155v-9.31875001h-1.155zm8.263125-2.96625c.013125-.118125.039375-.301875.039375-.538125 0-1.168125-.55125-2.9925-2.625-2.9925-1.850625 0-2.979375 1.509375-2.979375 3.425625s1.168125 3.2025 3.12375 3.2025c1.010625 0 1.70625-.21 2.113125-.39375l-.196875-.826875c-.433125.18375-.931875.328125-1.75875.328125-1.155 0-2.1525-.643125-2.17875-2.205zm-4.449375-.826875c.091875-.800625.60375-1.876875 1.771875-1.876875 1.299375 0 1.614375 1.141875 1.60125 1.876875zm11.5125-2.70375c-1.75875 0-3.15 1.246875-3.15 3.373125 0 2.008125 1.325625 3.268125 3.045 3.268125 1.535625 0 3.163125-1.02375 3.163125-3.373125 0-1.9425-1.23375-3.268125-3.058125-3.268125zm-.02625.86625c1.365 0 1.903125 1.365 1.903125 2.44125 0 1.430625-.826875 2.4675-1.929375 2.4675-1.12875 0-1.929375-1.05-1.929375-2.44125 0-1.2075.590625-2.4675 1.955625-2.4675zm4.60125 5.630625h1.155v-3.819375c0-.196875.02625-.39375.07875-.538125.196875-.643125.7875-1.18125 1.54875-1.18125 1.089375 0 1.47.853125 1.47 1.876875v3.661875h1.155v-3.793125c0-2.17875-1.365-2.70375-2.244375-2.70375-1.05 0-1.785.590625-2.1 1.194375h-.02625l-.065625-1.05h-1.02375c.039375.525.0525 1.063125.0525 1.719375zm10.449375-7.87500001v1.52250001h-.984375v.879375h.984375v3.465c0 .748125.118125 1.3125.44625 1.65375.275625.315.70875.485625 1.246875.485625.44625 0 .800625-.065625 1.02375-.1575l-.0525-.86625c-.144375.039375-.3675.07875-.669375.07875-.643125 0-.86625-.44625-.86625-1.23375v-3.425625h1.65375v-.879375h-1.65375v-1.82437501zm4.141875 7.87500001h1.155v-3.8325c0-.223125.013125-.39375.07875-.55125.21-.63.800625-1.155 1.54875-1.155 1.089375 0 1.47.86625 1.47 1.89v3.64875h1.155v-3.78c0-2.191875-1.365-2.716875-2.218125-2.716875-.433125 0-.84.13125-1.18125.328125-.354375.196875-.643125.485625-.826875.81375h-.02625v-3.96375001h-1.155zm12.45-2.96625c.013125-.118125.039375-.301875.039375-.538125 0-1.168125-.55125-2.9925-2.625-2.9925-1.850625 0-2.979375 1.509375-2.979375 3.425625s1.168125 3.2025 3.12375 3.2025c1.010625 0 1.70625-.21 2.113125-.39375l-.196875-.826875c-.433125.18375-.931875.328125-1.75875.328125-1.155 0-2.1525-.643125-2.17875-2.205zm-4.449375-.826875c.091875-.800625.60375-1.876875 1.771875-1.876875 1.299375 0 1.614375 1.141875 1.60125 1.876875z"/><path d="m46.8025062 32.1427692 1.728 5.088h2.232l-5.52-16.1760002h-2.5200001l-5.4960001 16.1760002h2.1600001l1.68-5.088zm-5.3040001-1.6320001 1.584-4.68c.312-.9840001.576-1.9680001.816-2.9280001h.048c.24.936.48 1.896.84 2.9520001l1.5840001 4.656zm11.0460002 11.4720002h2.088v-6.3120001h.048c.696 1.152 2.04 1.824 3.576 1.824 2.7360001 0 5.2800001-2.064 5.2800001-6.2400001 0-3.528-2.112-5.904-4.9200001-5.904-1.896 0-3.264.84-4.128 2.256h-.048l-.096-1.992h-1.8960001c.048 1.104.0960001 2.304.0960001 3.792zm2.088-11.4720002c0-.288.072-.6.144-.864.408-1.584 1.752-2.616 3.192-2.616 2.2320001 0 3.4560001 1.992 3.4560001 4.32 0 2.6640001-1.296 4.4880001-3.5280001 4.4880001-1.512 0-2.784-1.008-3.168-2.472-.048-.264-.096-.552-.096-.864zm11.1180001 11.4720002h2.0880001v-6.3120001h.048c.696 1.152 2.04 1.824 3.576 1.824 2.7360001 0 5.2800001-2.064 5.2800001-6.2400001 0-3.528-2.112-5.904-4.9200001-5.904-1.896 0-3.264.84-4.128 2.256h-.048l-.096-1.992h-1.8960001c.048 1.104.096 2.304.096 3.792zm2.0880001-11.4720002c0-.288.072-.6.144-.864.408-1.584 1.752-2.616 3.192-2.616 2.232 0 3.4560001 1.992 3.4560001 4.32 0 2.6640001-1.2960001 4.4880001-3.5280001 4.4880001-1.512 0-2.784-1.008-3.168-2.472-.048-.264-.096-.552-.096-.864zm15.0120002 5.9280001c.864.576 2.568 1.032 4.128 1.032 3.8160001 0 5.6640001-2.16 5.6640001-4.656 0-2.3760001-1.392-3.6960001-4.128-4.7520001-2.2320001-.864-3.2160001-1.608-3.2160001-3.1200001 0-1.104.84-2.424 3.0480001-2.424 1.464 0 2.544.48 3.072.768l.576-1.704c-.72-.408-1.92-.792-3.576-.792-3.1440001 0-5.2320001 1.872-5.2320001 4.3920001 0 2.28 1.632 3.648 4.272 4.584 2.1840001.84 3.0480001 1.704 3.0480001 3.2160001 0 1.632-1.248 2.76-3.3840001 2.76-1.44 0-2.808-.48-3.744-1.056zm12.5340001-13.6080002v2.7840001h-1.8v1.608h1.8v6.3360001c0 1.368.216 2.4.8160001 3.024.504.576 1.296.888 2.28.888.816 0 1.464-.12 1.8720001-.288l-.096-1.584c-.2640001.072-.6720001.144-1.2240001.144-1.176 0-1.584-.816-1.584-2.256v-6.2640001h3.0240001v-1.608h-3.0240001v-3.3360001zm11.7900002 2.5200001c-3.216 0-5.76 2.28-5.76 6.168 0 3.6720001 2.424 5.9760001 5.568 5.9760001 2.808 0 5.784-1.872 5.784-6.1680001 0-3.552-2.256-5.976-5.592-5.976zm-.048 1.584c2.496 0 3.48 2.496 3.48 4.464 0 2.6160001-1.512 4.5120001-3.528 4.5120001-2.064 0-3.528-1.92-3.528-4.4640001 0-2.208 1.08-4.512 3.576-4.512zm7.854 10.2960001h2.088v-6.1920001c0-.36.048-.696.096-.984.288-1.584 1.344-2.712 2.832-2.712.288 0 .504.024.72.072v-1.992c-.192-.048-.36-.072-.6-.072-1.416 0-2.688.984-3.216 2.544h-.096l-.072-2.28h-1.848c.072 1.08.096 2.256.096 3.624zm16.494-5.4240001c.024-.216.072-.552.072-.984 0-2.136-1.008-5.472-4.8-5.472-3.384 0-5.448 2.76-5.448 6.264 0 3.5040001 2.136 5.8560001 5.712 5.8560001 1.848 0 3.12-.384 3.864-.72l-.36-1.512c-.792.336-1.704.6-3.216.6-2.112 0-3.936-1.176-3.984-4.0320001zm-8.136-1.512c.168-1.464 1.104-3.432 3.24-3.432 2.376 0 2.952 2.088 2.928 3.432z"/></g></g></svg>