<svg height="50" viewBox="0 0 151 49" xmlns="http://www.w3.org/2000/svg"><g fill="none" fill-rule="evenodd" transform="translate(.638554)"><rect fill="#5c666f" height="48.076923" rx="2" width="150.361446"/><g fill="#fff"><path d="m103.976276 33.797869-1.099818 1.0283784c-.253489.1385135-.506297.2993243-.758424.4135135-.763875.3439189-1.540698.4304054-2.2309799.4304054-.7345744 0-1.8861799-.0466216-3.0602724-.8891892-1.6320089-1.1405405-2.3454592-3.0993243-2.3454592-4.8067567 0-3.5351352 2.9021821-5.2689189 5.2687655-5.2689189.827929 0 1.677664.2054054 2.368628.6385135 1.148879.7527027 1.44598 1.7317567 1.610884 2.2567567l-5.4064126 2.1655406-1.7703379.1364865c.5730771 2.8979729 2.5505677 4.5837837 4.7358925 4.5837837 1.09164 0 1.901853-.3527027 2.645285-.7175675-.000681.0006756.148551-.0763514.042249.029054zm-3.261293-5.7655405c.439519-.1581081.667114-.2952703.667114-.6121622 0-.9108108-1.039171-1.9621621-2.2793612-1.9621621-.9192401 0-2.6432413.7094594-2.6432413 3.1722973 0 .3844594.0456554.7939189.0695052 1.2033783z"/><path d="m92.6735063 33.620842c0 .8864865.1594531 1.0243243.9151516 1.0932432.3938627.045946.7863626.0668919 1.1754553.1121622l-.8504164.502027h-4.0524247c.5315102-.6837838.6228209-.7513513.6228209-1.2074324v-.5087838l-.0088585-13.5560811h-1.7894177l1.7219568-.8229729h3.2885492c-.7127689.4087837-.925373.6587837-1.0173651 1.456081z"/><path d="m86.3887386 25.8242204c.5274217.4304054 1.6299647 1.3432432 1.6299647 3.0763513 0 1.6885135-.9601255 2.4844595-1.9284282 3.2378379-.2971005.2966216-.643945.6182432-.643945 1.1155405 0 .5040541.3475259.7777027.5976083.9817568l.830655.6358108c1.0098695.8452702 1.9304724 1.6202702 1.9304724 3.1945946 0 2.1452702-2.0933325 4.3074324-6.0489952 4.3074324-3.3321603 0-4.9430451-1.572973-4.9430451-3.2601351 0-.8216217.4115797-1.9844595 1.7723822-2.7804054 1.4255377-.8641892 3.3573729-.9797298 4.3910922-1.0472973-.3229947-.4135136-.6916448-.8466217-.6916448-1.5533784 0-.3864865.1172049-.6168919.2303211-.8885135-.2514452.0236486-.5049347.0479729-.7352558.0479729-2.4388142 0-3.8180151-1.804054-3.8180151-3.5824324 0-1.0486486.4824477-2.2114865 1.4732373-3.0554054 1.3110586-1.0702703 2.8742438-1.2547297 4.1164786-1.2547297h4.7386181l-1.4732373.825zm-1.6299647 10.1222973c-.1880729-.0243244-.3011891-.0243244-.5287845-.0243244-.2085156 0-1.4507504.0445946-2.4129202.3648649-.5090232.1844595-1.9802163.7297297-1.9802163 2.35 0 1.6162162 1.5883979 2.7810811 4.046292 2.7810811 2.2071302 0 3.3798599-1.0493243 3.3798599-2.4621622-.0006815-1.1628378-.7591057-1.7763513-2.5042309-3.0094594zm.6616621-4.3324325c.5315102-.5256756.577847-1.2527027.577847-1.6662162 0-1.6398648-.9860196-4.1939189-2.8974122-4.1939189-.5962454 0-1.2422348.2972973-1.6088405.7554054-.3884114.475-.5049348 1.0912162-.5049348 1.6837838 0 1.527027.8974346 4.0594595 2.8735624 4.0594595.5758027 0 1.195898-.2777028 1.5597781-.6385136z"/><path d="m72.1319989 35.6235447c-3.655155 0-5.61084-2.822973-5.61084-5.3777027 0-2.9858108 2.4585755-5.5405405 5.9556402-5.5405405 3.3805413 0 5.4977237 2.6243243 5.4977237 5.3797297 0 2.6905405-2.0926511 5.5385135-5.8425239 5.5385135zm2.8756066-1.8445946c.5560415-.7297297.6909633-1.6405405.6909633-2.5283784 0-2.0081081-.9648955-5.8378378-3.8166523-5.8378378-.7584242 0-1.5222998.2939189-2.0728899.7743243-.898116.797973-1.0582505 1.8-1.0582505 2.7837838 0 2.2527027 1.1223043 5.9682432 3.9093259 5.9682432.9001603 0 1.8180375-.4317567 2.3475035-1.1601351z"/><path d="m59.8943166 35.6235447c-3.6558364 0-5.6087957-2.822973-5.6087957-5.3777027 0-2.9858108 2.4592569-5.5405405 5.9549588-5.5405405 3.378497 0 5.4936352 2.6243243 5.4936352 5.3797297.0006814 2.6905405-2.0892441 5.5385135-5.8397983 5.5385135zm2.8762881-1.8445946c.5519529-.7297297.6896004-1.6405405.6896004-2.5283784 0-2.0081081-.9676212-5.8378378-3.8166523-5.8378378-.7611499 0-1.5168484.2939189-2.0688013.7743243-.8994789.797973-1.0589319 1.8-1.0589319 2.7837838 0 2.2527027 1.1270742 5.9682432 3.9093258 5.9682432.898116 0 1.8146304-.4317567 2.3454593-1.1601351z"/><path d="m52.8245492 34.8323285-3.0827593.6993243c-1.2490491.1952703-2.3706719.3675676-3.5583929.3675676-5.9467817 0-8.211833-4.3405406-8.211833-7.7364865 0-4.1486487 3.2101855-7.9939189 8.7072278-7.9939189 1.1631897 0 2.2827683.1695946 3.3021777.4445946 1.6156548.4506756 2.3706719 1.0047297 2.8435797 1.3304054l-1.7907806 1.6864865-.7550171.1675675.5383244-.8513513c-.729123-.7060811-2.0694827-2.0094595-4.6132362-2.0094595-3.400984 0-5.9672244 2.5635135-5.9672244 6.3060811 0 4.0195946 2.9301205 7.8006757 7.6278532 7.8006757 1.3805637 0 2.0912883-.275 2.7365962-.5317568v-3.4459459l-3.254478.1736486 1.725364-.9189189h4.5675808l-.5580857.5331081c-.151276.127027-.1710373.1702703-.2132855.3405405-.022487.1945946-.0429297.8135136-.0429297 1.0310811v2.6067568z"/><path d="m110.604481 33.8951663v5.8081081h-1.16319v-14.7783784h1.16319v1.6824325c.757061-1.0871622 2.141713-1.95 3.750554-1.95 2.883784 0 4.827203 2.1695946 4.827203 5.604054 0 3.4114865-1.943419 5.6263514-4.827203 5.6263514-1.518211.0006757-2.878332-.7756757-3.750554-1.9925676zm7.328027-3.6331081c0-2.5885135-1.360803-4.5628378-3.773723-4.5628378-1.49845 0-2.931483 1.1682432-3.554304 2.1858108v4.7304054c.622821 1.0202703 2.055854 2.2304054 3.554304 2.2304054 2.41292 0 3.773723-1.9912162 3.773723-4.5837838z"/><path d="m120.770636 35.6221933v-14.7777027h1.162508v14.7777027z"/><path d="m134.985127 38.7471933c.248039.1094595.672565.1777027.942409.1777027.711406 0 1.206801-.2885135 1.65177-1.3081081l.848372-1.9054054-4.582572-10.7864865h1.29743l3.93045 9.3472973 3.892291-9.3472973h1.315828l-5.588353 13.0493244c-.579891 1.3445946-1.492317 1.9912162-2.745455 1.9912162-.376145 0-.87154-.0668919-1.162508-.1547297z"/><path d="m131.587551 35.5904366c-.077683-.370946-.136285-.6972973-.179215-.970946-.036115-.2722973-.055876-.5506756-.055876-.8337837-.399315.5804054-.964215 1.0635135-1.685842 1.4445946-.722309.3824324-1.407821.5709459-2.349548.5709459-1.133207 0-2.012243-.2763514-2.640515-.8371622-.625547-.5601351-.940364-1.3189189-.940364-2.279054 0-.9587838.455872-1.7371622 1.364891-2.3324324.909018-.597973 2.084474-.8945946 3.53795-.8945946h2.712746v-1.3297298c0-.7655405-.263711-1.3668919-.788407-1.804054-.527421-.4364865-1.267447-.6581081-2.227573-.6581081-.876992 0-1.588398.202027-2.130129.5952702-.536962.4013514-.806805.8986487-.806805 1.497973h-1.190447l-.024531-.0574324c-.043611-.8074325.329809-1.5168919 1.122304-2.1283784.788407-.6114865 1.822807-.9189189 3.095025-.9189189 1.267447 0 2.293671.3027027 3.067768.9067567.772734.597973 1.160464 1.4621622 1.160464 2.5918919v5.2777027c0 .3790541.017717.7452703.066098 1.1020271.049062.3574324.127426.7141891.231684 1.0587837h-1.339678zm-4.127382-.8405406c.988064 0 1.698107-.2189189 2.424505-.652027.720946-.4310811 1.210889-.9925675 1.468467-1.6722973v-2.054054h-2.725694c-1.041214 0-1.903215.2283783-2.581231.6898648-.679379.4594595-1.02418 1.0155406-1.02418 1.6621622 0 .6094595.218056 1.097973.652123 1.4675676.434066.3736486 1.028267.5587837 1.78601.5587837z"/><path d="m37.9429442 8.72219335c0-2.27094595 1.7015142-3.73108108 3.8180152-3.73108108 1.418042 0 2.3447778.67027027 2.9233062 1.49256756l-1.0364449.59527027c-.3924999-.54121621-1.0800561-.96283783-1.8868613-.96283783-1.4391662 0-2.5090009 1.08175675-2.5090009 2.60608108 0 1.50337835 1.0691533 2.60608105 2.5090009 2.60608105.74207 0 1.3962365-.3351351 1.7233197-.6486486v-1.11418921h-2.1812362v-1.11351351h3.4466394v2.69256752c-.7086803.7898649-1.7342225 1.3195946-2.9887229 1.3195946-2.116501 0-3.8180152-1.481081-3.8180152-3.74189185z"/><path d="m46.3278588 12.3235447v-7.21418919h4.9839305v1.11418919h-3.708306v1.86013513h3.632668v1.11418919h-3.632668v2.01216218h3.708306v1.1135135z"/><path d="m54.8436066 12.3235447v-6.09932433h-2.2030417v-1.11418918h5.6823894v1.11418918h-2.2023603v6.09932433z"/><path d="m62.758339 12.3235447v-7.21418919h1.2756246v7.21418919z"/><path d="m67.5882679 12.3235447v-6.09932433h-2.2030418v-1.11418918h5.6823895v1.11418918h-2.2030418v6.09932433z"/><path d="m75.1868198 8.72219335c0-2.15270271 1.5379726-3.73108108 3.7198902-3.73108108 2.169652 0 3.7192087 1.57905405 3.7192087 3.73108108 0 2.15202705-1.5495567 3.73108105-3.7192087 3.73108105-2.182599 0-3.7198902-1.579054-3.7198902-3.73108105zm6.1300847 0c0-1.49256757-.9492228-2.60608108-2.4101945-2.60608108-1.4725559 0-2.4108759 1.11351351-2.4108759 2.60608108 0 1.48108105.93832 2.60608105 2.4108759 2.60608105 1.4609717 0 2.4101945-1.125 2.4101945-2.60608105z"/><path d="m89.1880258 12.3235447-3.7955282-5.15878379v5.15878379h-1.2756245v-7.21418919h1.3090143l3.7192087 4.99729729v-4.99729729h1.276306v7.21418919z"/><path d="m10.331017 40.5936314c-.41944624-.112389-.69246278-.5266399-.69246278-1.1676744v-21.1596064c0-.5936956.2311671-.9941001.59761168-1.1396794l10.4531031 11.791948zm1.4389447-.4491506 12.5822373-7.0937795-3.0645828-3.4570979zm12.6688797-15.4520866-12.4068902-6.9965459 9.2738069 10.5279125zm.8417974.4747099 4.8603364 2.7408614c.9202465.5189493.9286622 1.3554899 0 1.8790633l-4.9832982 2.8095495-3.2503779-3.6899296z"/></g></g></svg>