<svg viewBox="0 0 18 36" xmlns="http://www.w3.org/2000/svg"><path d="m14.0520107 7.69230769c-1.3728394 0-2.4857456 1.25242984-2.4857456 2.80340081v29.008583c0 1.5482755 1.1116752 2.8034008 2.4857456 2.8034008h12.3779063c1.3728394 0 2.4857457-1.2524298 2.4857457-2.8034008v-29.008583c0-1.54827551-1.1116752-2.80340081-2.4857457-2.80340081zm-.8592396 4.53972261v25.5359394h14.0963855v-25.5359394zm7.0481928 28.9407314c.5988629 0 1.0843373-.5081258 1.0843373-1.1349307s-.4854744-1.1349306-1.0843373-1.1349306c-.598863 0-1.0843374.5081257-1.0843374 1.1349306s.4854744 1.1349307 1.0843374 1.1349307zm-2.1686747-31.21059272c0 .31340242.1863704.56746532.4317387.56746532h3.473872c.2384427 0 .4317387-.2632285.4317387-.56746532 0-.31340244-.1863705-.56746532-.4317387-.56746532h-3.473872c-.2384427 0-.4317387.26322854-.4317387.56746532z" fill="#a9b2bb" fill-rule="evenodd" transform="translate(-11 -7)"/></svg>