<svg height="43" viewBox="0 0 49 43" width="49" xmlns="http://www.w3.org/2000/svg"><g fill="#eb5424" fill-rule="evenodd"><path d="m42.7721215 21.2728244c0-11.49146518-9.3681935-20.80713829-20.924446-20.80713829-11.5562524 0-20.92444596 9.31567311-20.92444596 20.80713829 0 11.4914651 9.36819356 20.8071382 20.92444596 20.8071382 11.5562525 0 20.924446-9.3156731 20.924446-20.8071382zm-38.04444723 0c0-9.4021079 7.66488563-17.02402224 17.12000123-17.02402224 9.4551157 0 17.1200013 7.62191434 17.1200013 17.02402224 0 9.4021078-7.6648856 17.0240222-17.1200013 17.0240222-9.4551156 0-17.12000123-7.6219144-17.12000123-17.0240222z"/><path d="m30.0906391 21.2728244c0-4.5269409-3.6905005-8.1967515-8.2429636-8.1967515-4.552463 0-8.2429635 3.6698106-8.2429635 8.1967515 0 4.5269408 3.6905005 8.1967514 8.2429635 8.1967514 4.5524631 0 8.2429636-3.6698106 8.2429636-8.1967514zm-12.6814824 0c0-2.4375836 1.9871926-4.4136354 4.4385188-4.4136354 2.4513263 0 4.4385189 1.9760518 4.4385189 4.4136354 0 2.4375835-1.9871926 4.4136353-4.4385189 4.4136353-2.4513262 0-4.4385188-1.9760518-4.4385188-4.4136353z"/><path d="m47.0770025 23.1643824c.9842097 0 1.7820693-.8468794 1.7820693-1.891558 0-1.0446787-.7978596-1.8915581-1.7820693-1.8915581h-19.0087388c-.9842097 0-1.7820693.8468794-1.7820693 1.8915581 0 1.0446786.7978596 1.891558 1.7820693 1.891558z"/></g></svg>