<svg height="274" viewBox="0 0 1184 274" width="1184" xmlns="http://www.w3.org/2000/svg"><g fill="none" fill-rule="evenodd"><g fill="#fff" transform="translate(.674539 .388439)"><path d="m273.812254 136.754798c0-75.4448155-61.233262-136.60492276-136.768319-136.60492276-75.5350566 0-136.76831876 61.16010726-136.76831876 136.60492276 0 75.444816 61.23326216 136.604923 136.76831876 136.604923 75.535057 0 136.768319-61.160107 136.768319-136.604923zm-248.6696707 0c0-61.7275763 50.0999418-111.767664 111.9013517-111.767664 61.80141 0 111.901352 50.0400877 111.901352 111.767664 0 61.727577-50.099942 111.767664-111.901352 111.767664-61.8014099 0-111.9013517-50.040087-111.9013517-111.767664z"/><path d="m190.922364 136.754798c0-29.720685-24.122194-53.8140604-53.878429-53.8140604-29.756234 0-53.8784285 24.0933754-53.8784285 53.8140604s24.1221945 53.814061 53.8784285 53.814061c29.756235 0 53.878429-24.093376 53.878429-53.814061zm-82.88989 0c0-16.003446 12.988873-28.976802 29.011461-28.976802s29.011462 12.973356 29.011462 28.976802-12.988874 28.976802-29.011462 28.976802-29.011461-12.973356-29.011461-28.976802z"/><path d="m301.95022 149.173428c6.433083 0 11.648127-5.56001 11.648127-12.41863 0-6.858619-5.215044-12.418629-11.648127-12.418629h-124.246695c-6.433084 0-11.648128 5.56001-11.648128 12.418629 0 6.85862 5.215044 12.41863 11.648128 12.41863z"/></g><path d="m496.16 152.66c0-19.76-8.74-28.5-34.2-40.09-19.95-9.12-24.89-13.87-24.89-23.94 0-9.69 6.65-17.67 21.66-17.67 10.45 0 20.33 4.18 27.55 9.69l2.85-17.86c-7.6-4.37-17.1-7.41-29.83-7.41-23.75 0-39.9 13.49-39.9 34.58 0 18.81 9.31 26.98 34.01 38.19 19.76 8.93 25.08 13.87 25.08 25.84 0 12.73-9.69 19.95-23.37 19.95-13.11 0-25.46-5.32-34.39-11.21l-2.66 18.24c9.69 5.13 22.42 8.55 36.67 8.55 24.51 0 41.42-14.25 41.42-36.86zm96.33 35.34v-65.93c0-16.34-9.12-26.6-26.22-26.6-12.92 0-23.37 7.22-30.78 13.87v-58.52l-16.91 2.66v134.52h16.91v-62.7c8.17-8.74 17.29-14.63 26.22-14.63 9.88 0 13.87 6.27 13.87 15.58v61.75zm94.81 0v-63.46c0-20.14-10.64-29.07-32.68-29.07-14.06 0-24.32 3.23-35.15 7.6l2.28 14.63c9.88-4.37 20.33-7.79 31.35-7.79 10.45 0 17.29 3.99 17.29 15.39v3.8c-37.81 3.99-57.19 12.92-57.19 35.53 0 15.39 10.26 25.27 26.6 25.27 14.82 0 24.7-6.65 31.92-14.06l1.9 12.16zm-16.91-24.89c-7.6 7.79-17.1 12.73-26.98 12.73-8.55 0-13.49-4.75-13.49-12.16 0-9.31 7.03-18.43 40.47-21.66zm93.86-51.49-2.66-16.15c-14.82.76-25.27 10.07-31.73 20.33l-2.85-18.43h-13.49v90.63h16.91v-53.58c6.08-11.97 18.81-22.04 33.82-22.8zm87.21 29.26c0-25.08-12.16-45.41-38.57-45.41-22.8 0-39.9 17.86-39.9 46.93 0 33.25 18.43 47.5 41.99 47.5 15.01 0 26.6-4.56 36.29-12.16l-2.47-15.2c-9.88 7.79-19.38 12.92-32.49 12.92-15.77 0-25.84-9.88-26.41-30.97h61.56zm-17.1-9.12h-43.7c2.66-15.58 11.59-22.99 22.04-22.99 13.11 0 19.57 8.36 21.66 22.99zm56.81 56.24v-137.18l-16.91 2.66v134.52zm106.59-45.22c0-29.83-17.86-47.31-42.18-47.31-24.13 0-41.61 17.48-41.61 47.31s17.48 47.12 41.61 47.12c24.32 0 42.18-17.29 42.18-47.12zm-17.1 0c0 19-8.36 33.06-25.08 33.06-15.96 0-24.51-14.44-24.51-33.06 0-19 8.17-33.06 24.51-33.06s25.08 14.44 25.08 33.06zm106.59 37.43-2.47-15.2c-9.31 7.98-17.29 10.07-26.41 10.07-15.96 0-27.17-10.45-27.17-32.49 0-21.09 10.45-32.3 25.27-32.3 10.45 0 19 3.23 27.36 10.07l2.47-16.53c-6.84-4.94-16.34-8.36-29.64-8.36-23.56 0-42.56 16.34-42.56 47.31 0 30.21 17.86 47.12 42.18 47.12 12.16 0 21.66-2.66 30.97-9.69zm96.71 6.27-41.42-49.02 38.19-40.09h-20.33l-35.15 38v-84.55l-16.91 2.66v134.52h16.91v-47.5l40.28 48.83z" fill="#ecf0f2"/></g></svg>