<svg enable-background="new -177.1 650.3 256.7 52.7" height="53" viewBox="-177.1 650.3 256.7 52.7" width="257" xmlns="http://www.w3.org/2000/svg"><g fill="none" stroke="#ccc" stroke-width="2" transform="translate(9.88476 715.98137)"><path d="m-135.3-39.3c0 14-11.3 25.3-25.3 25.3s-25.3-11.3-25.3-25.3 11.3-25.3 25.3-25.3 25.3 11.3 25.3 25.3z"/><path d="m-33.3-39.3c0 14-11.3 25.3-25.3 25.3s-25.3-11.3-25.3-25.3 11.3-25.3 25.3-25.3 25.3 11.3 25.3 25.3z"/><path d="m68.7-39.3c0 14-11.3 25.3-25.3 25.3s-25.3-11.3-25.3-25.3 11.3-25.3 25.3-25.3 25.3 11.3 25.3 25.3z"/><g stroke-linecap="round"><path d="m-134.9-39.1h51.1"/><path d="m-32.9-39.1h51.1"/></g></g></svg>