<svg height="612.59625" width="256.59625" xmlns="http://www.w3.org/2000/svg"><g transform="translate(9.88476 155.98137)"><g fill="none"><path d="m52.863924 25.161392c0 14.822554-12.016054 26.838608-26.838608 26.838608s-26.83860755-12.016054-26.83860755-26.838608 12.01605355-26.8386076 26.83860755-26.8386076 26.838608 12.0160536 26.838608 26.8386076z" stroke="#4d4d4d" stroke-width="2.121787" transform="matrix(.9426019 0 0 .9426019 -8.118149 -153.40042)"/><path d="m41.277358-129.54967h51.883967" stroke="#4d4d4d" stroke-width="2"/><path d="m52.863924 25.161392c0 14.822554-12.016054 26.838608-26.838608 26.838608s-26.83860755-12.016054-26.83860755-26.838608 12.01605355-26.8386076 26.83860755-26.8386076 26.838608 12.0160536 26.838608 26.8386076z" stroke="#4d4d4d" stroke-width="2.121787" transform="matrix(.9426019 0 0 .9426019 93.881855 -153.40042)"/><path d="m52.863924 25.161392c0 14.822554-12.016054 26.838608-26.838608 26.838608s-26.83860755-12.016054-26.83860755-26.838608 12.01605355-26.8386076 26.83860755-26.8386076 26.838608 12.0160536 26.838608 26.8386076z" stroke="#4d4d4d" stroke-width="2.121787" transform="matrix(.9426019 0 0 .9426019 195.88186 -153.40042)"/><path d="m143.27736-129.54967h51.88397" stroke="#4d4d4d" stroke-width="2"/></g><text style="font-size:23.94318;font-weight:600;letter-spacing:0;word-spacing:0;text-anchor:middle;fill:#4d4d4d;font-family:Open Sans" x="17.781212" y="-121.13712"><tspan x="17.781212" y="-121.13712">1</tspan></text><text style="font-size:23.94318;font-weight:600;letter-spacing:0;word-spacing:0;text-anchor:middle;fill:#4d4d4d;font-family:Open Sans" x="118.39582" y="-121.01437"><tspan x="118.39582" y="-121.01437">2</tspan></text><text style="font-size:23.94318;font-weight:600;letter-spacing:0;word-spacing:0;text-anchor:middle;fill:#4d4d4d;font-family:Open Sans" x="220.48936" y="-121.13128"><tspan x="220.48936" y="-121.13128">3</tspan></text><path d="m52.863924 25.161392c0 14.822554-12.016054 26.838608-26.838607 26.838608" fill="none" stroke="#d45500" stroke-width="2.121787" transform="matrix(-.9426019 0 0 -.9426019 40.944877 -105.96607)"/></g><g transform="translate(9.88476 235.98137)"><g fill="none"><path d="m52.863924 25.161392c0 14.822554-12.016054 26.838608-26.838608 26.838608s-26.83860755-12.016054-26.83860755-26.838608 12.01605355-26.8386076 26.83860755-26.8386076 26.838608 12.0160536 26.838608 26.8386076z" stroke="#d45500" stroke-width="2.121787" transform="matrix(.9426019 0 0 .9426019 -8.118149 -153.40042)"/><path d="m41.277358-129.54967h51.883967" stroke="#4d4d4d" stroke-width="2"/><path d="m52.863924 25.161392c0 14.822554-12.016054 26.838608-26.838608 26.838608s-26.83860755-12.016054-26.83860755-26.838608 12.01605355-26.8386076 26.83860755-26.8386076 26.838608 12.0160536 26.838608 26.8386076z" stroke="#4d4d4d" stroke-width="2.121787" transform="matrix(.9426019 0 0 .9426019 93.881855 -153.40042)"/><path d="m52.863924 25.161392c0 14.822554-12.016054 26.838608-26.838608 26.838608s-26.83860755-12.016054-26.83860755-26.838608 12.01605355-26.8386076 26.83860755-26.8386076 26.838608 12.0160536 26.838608 26.8386076z" stroke="#4d4d4d" stroke-width="2.121787" transform="matrix(.9426019 0 0 .9426019 195.88186 -153.40042)"/><path d="m143.27736-129.54967h51.88397" stroke="#4d4d4d" stroke-width="2"/></g><text style="font-size:23.94318;font-weight:600;letter-spacing:0;word-spacing:0;text-anchor:middle;fill:#eb5424;font-family:Open Sans" x="17.781212" y="-121.13712"><tspan x="17.781212" y="-121.13712">1</tspan></text><text style="font-size:23.94318;font-weight:600;letter-spacing:0;word-spacing:0;text-anchor:middle;fill:#4d4d4d;font-family:Open Sans" x="118.39582" y="-121.01437"><tspan x="118.39582" y="-121.01437">2</tspan></text><text style="font-size:23.94318;font-weight:600;letter-spacing:0;word-spacing:0;text-anchor:middle;fill:#4d4d4d;font-family:Open Sans" x="220.48936" y="-121.13128"><tspan x="220.48936" y="-121.13128">3</tspan></text><path d="m41.277358-129.54967h26.428123" fill="none" stroke="#d45500" stroke-width="2"/></g><g transform="translate(9.88476 315.98137)"><g fill="none"><path d="m52.863924 25.161392c0 14.822554-12.016054 26.838608-26.838608 26.838608s-26.83860755-12.016054-26.83860755-26.838608 12.01605355-26.8386076 26.83860755-26.8386076 26.838608 12.0160536 26.838608 26.8386076z" stroke="#d45500" stroke-width="2.121787" transform="matrix(.9426019 0 0 .9426019 -8.118149 -153.40042)"/><path d="m52.863924 25.161392c0 14.822554-12.016054 26.838608-26.838608 26.838608s-26.83860755-12.016054-26.83860755-26.838608 12.01605355-26.8386076 26.83860755-26.8386076 26.838608 12.0160536 26.838608 26.8386076z" stroke="#4d4d4d" stroke-width="2.121787" transform="matrix(.9426019 0 0 .9426019 93.881855 -153.40042)"/><path d="m52.863924 25.161392c0 14.822554-12.016054 26.838608-26.838608 26.838608s-26.83860755-12.016054-26.83860755-26.838608 12.01605355-26.8386076 26.83860755-26.8386076 26.838608 12.0160536 26.838608 26.8386076z" stroke="#4d4d4d" stroke-width="2.121787" transform="matrix(.9426019 0 0 .9426019 195.88186 -153.40042)"/><path d="m143.27736-129.54967h51.88397" stroke="#4d4d4d" stroke-width="2"/></g><text style="font-size:23.94318;font-weight:600;letter-spacing:0;word-spacing:0;text-anchor:middle;fill:#eb5424;font-family:Open Sans" x="17.781212" y="-121.13712"><tspan x="17.781212" y="-121.13712">1</tspan></text><text style="font-size:23.94318;font-weight:600;letter-spacing:0;word-spacing:0;text-anchor:middle;fill:#4d4d4d;font-family:Open Sans" x="118.39582" y="-121.01437"><tspan x="118.39582" y="-121.01437">2</tspan></text><text style="font-size:23.94318;font-weight:600;letter-spacing:0;word-spacing:0;text-anchor:middle;fill:#4d4d4d;font-family:Open Sans" x="220.48936" y="-121.13128"><tspan x="220.48936" y="-121.13128">3</tspan></text><path d="m52.863924 25.161392c0 14.822554-12.016054 26.838608-26.838607 26.838608" fill="none" stroke="#d45500" stroke-width="2.121787" transform="matrix(-.9426019 0 0 -.9426019 142.94488 -105.96607)"/><path d="m41.277358-129.54967h26.428123" fill="none" stroke="#d45500" stroke-width="2"/><path d="m42.077-129.54967h51.084325" fill="none" stroke="#d45500" stroke-linecap="round" stroke-width="2"/></g><g transform="translate(9.88476 395.98137)"><g fill="none"><path d="m52.863924 25.161392c0 14.822554-12.016054 26.838608-26.838608 26.838608s-26.83860755-12.016054-26.83860755-26.838608 12.01605355-26.8386076 26.83860755-26.8386076 26.838608 12.0160536 26.838608 26.8386076z" stroke="#d45500" stroke-width="2.121787" transform="matrix(.9426019 0 0 .9426019 -8.118149 -153.40042)"/><path d="m52.863924 25.161392c0 14.822554-12.016054 26.838608-26.838608 26.838608s-26.83860755-12.016054-26.83860755-26.838608 12.01605355-26.8386076 26.83860755-26.8386076 26.838608 12.0160536 26.838608 26.8386076z" stroke="#d45500" stroke-width="2.121787" transform="matrix(.9426019 0 0 .9426019 93.881855 -153.40042)"/><path d="m52.863924 25.161392c0 14.822554-12.016054 26.838608-26.838608 26.838608s-26.83860755-12.016054-26.83860755-26.838608 12.01605355-26.8386076 26.83860755-26.8386076 26.838608 12.0160536 26.838608 26.8386076z" stroke="#4d4d4d" stroke-width="2.121787" transform="matrix(.9426019 0 0 .9426019 195.88186 -153.40042)"/><path d="m143.27736-129.54967h51.88397" stroke="#4d4d4d" stroke-width="2"/></g><text style="font-size:23.94318;font-weight:600;letter-spacing:0;word-spacing:0;text-anchor:middle;fill:#eb5424;font-family:Open Sans" x="17.781212" y="-121.13712"><tspan x="17.781212" y="-121.13712">1</tspan></text><text style="font-size:23.94318;font-weight:600;letter-spacing:0;word-spacing:0;text-anchor:middle;fill:#d45500;font-family:Open Sans" x="118.39582" y="-121.01437"><tspan x="118.39582" y="-121.01437">2</tspan></text><text style="font-size:23.94318;font-weight:600;letter-spacing:0;word-spacing:0;text-anchor:middle;fill:#4d4d4d;font-family:Open Sans" x="220.48936" y="-121.13128"><tspan x="220.48936" y="-121.13128">3</tspan></text><path d="m41.277358-129.54967h26.428123" fill="none" stroke="#d45500" stroke-width="2"/><path d="m42.077-129.54967h51.084325" fill="none" stroke="#d45500" stroke-linecap="round" stroke-width="2"/><path d="m144.077-129.54967h25.08433" fill="none" stroke="#d45500" stroke-linecap="round" stroke-width="2"/></g><g transform="translate(9.88476 475.98137)"><path d="m52.863924 25.161392c0 14.822554-12.016054 26.838608-26.838608 26.838608s-26.83860755-12.016054-26.83860755-26.838608 12.01605355-26.8386076 26.83860755-26.8386076 26.838608 12.0160536 26.838608 26.8386076z" fill="none" stroke="#d45500" stroke-width="2.121787" transform="matrix(.9426019 0 0 .9426019 -8.118149 -153.40042)"/><path d="m52.863924 25.161392c0 14.822554-12.016054 26.838608-26.838608 26.838608s-26.83860755-12.016054-26.83860755-26.838608 12.01605355-26.8386076 26.83860755-26.8386076 26.838608 12.0160536 26.838608 26.8386076z" fill="none" stroke="#d45500" stroke-width="2.121787" transform="matrix(.9426019 0 0 .9426019 93.881855 -153.40042)"/><path d="m52.863924 25.161392c0 14.822554-12.016054 26.838608-26.838608 26.838608s-26.83860755-12.016054-26.83860755-26.838608 12.01605355-26.8386076 26.83860755-26.8386076 26.838608 12.0160536 26.838608 26.8386076z" fill="none" stroke="#4d4d4d" stroke-width="2.121787" transform="matrix(.9426019 0 0 .9426019 195.88186 -153.40042)"/><text style="font-size:23.94318;font-weight:600;letter-spacing:0;word-spacing:0;text-anchor:middle;fill:#eb5424;font-family:Open Sans" x="17.781212" y="-121.13712"><tspan x="17.781212" y="-121.13712">1</tspan></text><text style="font-size:23.94318;font-weight:600;letter-spacing:0;word-spacing:0;text-anchor:middle;fill:#d45500;font-family:Open Sans" x="118.39582" y="-121.01437"><tspan x="118.39582" y="-121.01437">2</tspan></text><text style="font-size:23.94318;font-weight:600;letter-spacing:0;word-spacing:0;text-anchor:middle;fill:#4d4d4d;font-family:Open Sans" x="220.48936" y="-121.13128"><tspan x="220.48936" y="-121.13128">3</tspan></text><g fill="none"><path d="m52.863924 25.161392c0 14.822554-12.016054 26.838608-26.838607 26.838608" stroke="#d45500" stroke-width="2.121787" transform="matrix(-.9426019 0 0 -.9426019 244.94488 -105.96607)"/><path d="m41.277358-129.54967h26.428123" stroke="#d45500" stroke-width="2"/><path d="m42.077-129.54967h51.084325" stroke="#d45500" stroke-linecap="round" stroke-width="2"/><path d="m144.077-129.54967h25.08433" stroke="#d45500" stroke-linecap="round" stroke-width="2"/><path d="m144.077-129.54967h51.08433" stroke="#d45500" stroke-linecap="round" stroke-width="2"/></g></g><g transform="translate(9.88476 555.98137)"><path d="m52.863924 25.161392c0 14.822554-12.016054 26.838608-26.838608 26.838608s-26.83860755-12.016054-26.83860755-26.838608 12.01605355-26.8386076 26.83860755-26.8386076 26.838608 12.0160536 26.838608 26.8386076z" fill="none" stroke="#d45500" stroke-width="2.121787" transform="matrix(.9426019 0 0 .9426019 -8.118149 -153.40042)"/><path d="m52.863924 25.161392c0 14.822554-12.016054 26.838608-26.838608 26.838608s-26.83860755-12.016054-26.83860755-26.838608 12.01605355-26.8386076 26.83860755-26.8386076 26.838608 12.0160536 26.838608 26.8386076z" fill="none" stroke="#d45500" stroke-width="2.121787" transform="matrix(.9426019 0 0 .9426019 93.881855 -153.40042)"/><path d="m52.863924 25.161392c0 14.822554-12.016054 26.838608-26.838608 26.838608s-26.83860755-12.016054-26.83860755-26.838608 12.01605355-26.8386076 26.83860755-26.8386076 26.838608 12.0160536 26.838608 26.8386076z" fill="none" stroke="#4d4d4d" stroke-width="2.121787" transform="matrix(.9426019 0 0 .9426019 195.88186 -153.40042)"/><text style="font-size:23.94318;font-weight:600;letter-spacing:0;word-spacing:0;text-anchor:middle;fill:#eb5424;font-family:Open Sans" x="17.781212" y="-121.13712"><tspan x="17.781212" y="-121.13712">1</tspan></text><text style="font-size:23.94318;font-weight:600;letter-spacing:0;word-spacing:0;text-anchor:middle;fill:#d45500;font-family:Open Sans" x="118.39582" y="-121.01437"><tspan x="118.39582" y="-121.01437">2</tspan></text><text style="font-size:23.94318;font-weight:600;letter-spacing:0;word-spacing:0;text-anchor:middle;fill:#4d4d4d;font-family:Open Sans" x="220.48936" y="-121.13128"><tspan x="220.48936" y="-121.13128">3</tspan></text><g fill="none"><path d="m52.863924 25.161392c0 14.822554-12.016054 26.838608-26.838607 26.838608" stroke="#d45500" stroke-width="2.121787" transform="matrix(-.9426019 0 0 -.9426019 244.94488 -105.96607)"/><path d="m41.277358-129.54967h26.428123" stroke="#d45500" stroke-width="2"/><path d="m42.077-129.54967h51.084325" stroke="#d45500" stroke-linecap="round" stroke-width="2"/><path d="m144.077-129.54967h25.08433" stroke="#d45500" stroke-linecap="round" stroke-width="2"/><path d="m144.077-129.54967h51.08433" stroke="#d45500" stroke-linecap="round" stroke-width="2"/><path d="m52.863924 25.161392c0 14.822554-12.016054 26.838608-26.838607 26.838608" stroke="#d45500" stroke-linecap="round" stroke-width="2.121787" transform="matrix(0 -.9426019 .9426019 0 196.69619 -105.15173)"/></g></g><g transform="translate(9.88476 635.98137)"><path d="m52.863924 25.161392c0 14.822554-12.016054 26.838608-26.838608 26.838608s-26.83860755-12.016054-26.83860755-26.838608 12.01605355-26.8386076 26.83860755-26.8386076 26.838608 12.0160536 26.838608 26.8386076z" fill="none" stroke="#d45500" stroke-width="2.121787" transform="matrix(.9426019 0 0 .9426019 -8.118149 -153.40042)"/><path d="m52.863924 25.161392c0 14.822554-12.016054 26.838608-26.838608 26.838608s-26.83860755-12.016054-26.83860755-26.838608 12.01605355-26.8386076 26.83860755-26.8386076 26.838608 12.0160536 26.838608 26.8386076z" fill="none" stroke="#d45500" stroke-width="2.121787" transform="matrix(.9426019 0 0 .9426019 93.881855 -153.40042)"/><path d="m52.863924 25.161392c0 14.822554-12.016054 26.838608-26.838608 26.838608s-26.83860755-12.016054-26.83860755-26.838608 12.01605355-26.8386076 26.83860755-26.8386076 26.838608 12.0160536 26.838608 26.8386076z" fill="none" stroke="#4d4d4d" stroke-width="2.121787" transform="matrix(.9426019 0 0 .9426019 195.88186 -153.40042)"/><text style="font-size:23.94318;font-weight:600;letter-spacing:0;word-spacing:0;text-anchor:middle;fill:#eb5424;font-family:Open Sans" x="17.781212" y="-121.13712"><tspan x="17.781212" y="-121.13712">1</tspan></text><text style="font-size:23.94318;font-weight:600;letter-spacing:0;word-spacing:0;text-anchor:middle;fill:#d45500;font-family:Open Sans" x="118.39582" y="-121.01437"><tspan x="118.39582" y="-121.01437">2</tspan></text><text style="font-size:23.94318;font-weight:600;letter-spacing:0;word-spacing:0;text-anchor:middle;fill:#4d4d4d;font-family:Open Sans" x="220.48936" y="-121.13128"><tspan x="220.48936" y="-121.13128">3</tspan></text><g fill="none"><path d="m52.863924 25.161392c0 14.822554-12.016054 26.838608-26.838607 26.838608" stroke="#d45500" stroke-width="2.121787" transform="matrix(-.9426019 0 0 -.9426019 244.94488 -105.96607)"/><path d="m41.277358-129.54967h26.428123" stroke="#d45500" stroke-width="2"/><path d="m42.077-129.54967h51.084325" stroke="#d45500" stroke-linecap="round" stroke-width="2"/><path d="m144.077-129.54967h25.08433" stroke="#d45500" stroke-linecap="round" stroke-width="2"/><path d="m144.077-129.54967h51.08433" stroke="#d45500" stroke-linecap="round" stroke-width="2"/><path d="m52.863924 25.161392c0 14.822554-12.016054 26.838608-26.838607 26.838608" stroke="#d45500" stroke-linecap="round" stroke-width="2.121787" transform="matrix(0 -.9426019 .9426019 0 196.69619 -105.15173)"/><path d="m52.863924 25.161392c0 14.822554-12.016054 26.838608-26.838607 26.838608" stroke="#d45500" stroke-linecap="round" stroke-width="2.121787" transform="matrix(0 .9426019 .9426019 0 196.69619 -154.21476)"/></g></g><g transform="translate(9.88476 715.98137)"><path d="m52.863924 25.161392c0 14.822554-12.016054 26.838608-26.838608 26.838608s-26.83860755-12.016054-26.83860755-26.838608 12.01605355-26.8386076 26.83860755-26.8386076 26.838608 12.0160536 26.838608 26.8386076z" fill="none" stroke="#d45500" stroke-width="2.121787" transform="matrix(.9426019 0 0 .9426019 -8.118149 -153.40042)"/><path d="m52.863924 25.161392c0 14.822554-12.016054 26.838608-26.838608 26.838608s-26.83860755-12.016054-26.83860755-26.838608 12.01605355-26.8386076 26.83860755-26.8386076 26.838608 12.0160536 26.838608 26.8386076z" fill="none" stroke="#d45500" stroke-width="2.121787" transform="matrix(.9426019 0 0 .9426019 93.881855 -153.40042)"/><path d="m52.863924 25.161392c0 14.822554-12.016054 26.838608-26.838608 26.838608s-26.83860755-12.016054-26.83860755-26.838608 12.01605355-26.8386076 26.83860755-26.8386076 26.838608 12.0160536 26.838608 26.8386076z" fill="none" stroke="#4d4d4d" stroke-width="2.121787" transform="matrix(.9426019 0 0 .9426019 195.88186 -153.40042)"/><text style="font-size:23.94318;font-weight:600;letter-spacing:0;word-spacing:0;text-anchor:middle;fill:#eb5424;font-family:Open Sans" x="17.781212" y="-121.13712"><tspan x="17.781212" y="-121.13712">1</tspan></text><text style="font-size:23.94318;font-weight:600;letter-spacing:0;word-spacing:0;text-anchor:middle;fill:#d45500;font-family:Open Sans" x="118.39582" y="-121.01437"><tspan x="118.39582" y="-121.01437">2</tspan></text><text style="font-size:23.94318;font-weight:600;letter-spacing:0;word-spacing:0;text-anchor:middle;fill:#d45500;font-family:Open Sans" x="220.48936" y="-121.13128"><tspan x="220.48936" y="-121.13128">3</tspan></text><g fill="none"><path d="m52.863924 25.161392c0 14.822554-12.016054 26.838608-26.838607 26.838608" stroke="#d45500" stroke-width="2.121787" transform="matrix(-.9426019 0 0 -.9426019 244.94488 -105.96607)"/><path d="m41.277358-129.54967h26.428123" stroke="#d45500" stroke-width="2"/><path d="m42.077-129.54967h51.084325" stroke="#d45500" stroke-linecap="round" stroke-width="2"/><path d="m144.077-129.54967h25.08433" stroke="#d45500" stroke-linecap="round" stroke-width="2"/><path d="m144.077-129.54967h51.08433" stroke="#d45500" stroke-linecap="round" stroke-width="2"/><path d="m52.863924 25.161392c0 14.822554-12.016054 26.838608-26.838607 26.838608" stroke="#d45500" stroke-linecap="round" stroke-width="2.121787" transform="matrix(0 -.9426019 .9426019 0 196.69619 -105.15173)"/><path d="m52.863924 25.161392c0 14.822554-12.016054 26.838608-26.838607 26.838608" stroke="#d45500" stroke-linecap="round" stroke-width="2.121787" transform="matrix(0 .9426019 .9426019 0 196.69619 -154.21476)"/><path d="m52.863924 25.161392c0 14.822554-12.016054 26.838608-26.838607 26.838608" stroke="#d45500" stroke-linecap="round" stroke-width="2.121787" transform="matrix(0 .9426019 -.9426019 0 244.1283 -154.21476)"/></g></g></svg>